<svg width="640" height="480" xmlns="http://www.w3.org/2000/svg" xmlns:svg="http://www.w3.org/2000/svg">
 <!-- Created with SVG-edit - https://github.com/SVG-Edit/svgedit-->
 <g class="layer">
  <title>Layer 1</title>
  <g id="svg_4">
   <path id="in" d="m163.66,176.1c0.61,4.27 -0.61,99.39 -0.85,98.9c-0.24,-0.49 -3.41,30.98 16.1,25.49c19.51,-5.49 23.17,-10.37 23.17,-17.07c0,-6.71 -2.44,-109.76 -2.68,-110.24c-0.24,-0.49 11.83,-9.27 11.59,-9.76c-0.24,-0.49 0.85,-9.88 -14.39,-11.1c-15.24,-1.22 7.93,-6.71 -15.24,-1.22c-23.17,5.49 -23.17,5.49 -23.41,5c-0.24,-0.49 5.73,20 5.73,20z" fill="#FF0000" fill-opacity="100" id="svg_1" stroke="#000000"/>
   <path id="out" d="m174.02,199.27l-0.24,65.37c0,0 11.22,-0.12 12.44,0.49c1.22,0.61 6.1,-64.63 5.85,-65.12c-0.24,-0.49 -18.05,-0.73 -18.05,-0.73z" fill="#ae9fff" fill-opacity="100" id="svg_3" stroke="#000000"/>
  </g>
 </g>
</svg>