<svg width="489.709" height="489.709" xmlns="http://www.w3.org/2000/svg" xmlns:svg="http://www.w3.org/2000/svg" version="1.1" xml:space="preserve">
 <g class="layer">
  <title>Layer 1</title>
  <path id="out"  d="m206.59,341.37l135.52,0c9.98,0 19.22,-4.97 24.71,-13.3c5.5,-8.32 6.45,-18.77 2.53,-27.94l-56.68,-132.82l0,-78.85c6.1,-2.08 10.51,-7.86 10.51,-14.66c0,-8.55 -6.96,-15.5 -15.51,-15.5l-66.64,0c-8.55,0 -15.5,6.95 -15.5,15.5c0,6.8 4.4,12.58 10.5,14.66l0,78.85l-56.68,132.82c-3.91,9.17 -2.97,19.62 2.53,27.94c5.5,8.33 14.74,13.3 24.71,13.3zm-18.04,-37.32l57.08,-133.76c0.27,-0.62 0.4,-1.29 0.4,-1.96l0,-79.02l27.74,0c2.76,0 5,-2.24 5,-5s-2.24,-5 -5,-5l-32.74,0c-3.03,0 -5.5,-2.47 -5.5,-5.51s2.47,-5.5 5.5,-5.5l66.64,0c3.04,0 5.51,2.47 5.51,5.5s-2.47,5.51 -5.51,5.51l-8.66,0c-2.76,0 -5,2.23 -5,5s2.24,5 5,5l3.66,0l0,79.02c0,0.67 0.14,1.34 0.4,1.96l57.08,133.76c2.64,6.17 2.02,12.92 -1.67,18.51c-3.7,5.6 -9.66,8.81 -16.37,8.81l-135.52,0c-6.7,0 -12.67,-3.21 -16.36,-8.81c-3.7,-5.59 -4.31,-12.34 -1.68,-18.51z" id="svg_1"/>
  <path id="in" d="m202.32,315.73l144.78,1.64l-39.57,-114.83l-66.86,0l-38.36,113.19z" fill="#ffffff" id="svg_2" stroke="#000000" stroke-linecap="round" stroke-linejoin="round" stroke-width="8"/>
 </g>
</svg>