<svg width="58.99999999999999" height="90" xmlns="http://www.w3.org/2000/svg" xmlns:svg="http://www.w3.org/2000/svg" version="1.1" xml:space="preserve">
 <g class="layer">
  <title>Layer 1</title>
  <g id="svg_3">
   <g id="svg_9">
    <g id="svg_10">
     <path id="out" d="m17.84,7.53l-0.17,26.65l-16.7,45.87c-0.64,2.07 -3.25,8.52 4.05,9.46l45.51,0.12c-0.12,0 9.06,0.82 8.47,-8.94l-18.86,-46.27l-0.82,-26.93c-0.05,0.07 3.46,-1.25 3.46,-3.83c0,-2.59 -3.29,-3.53 -4.59,-3.53l-19.64,-0.12c-0.12,0.12 -4.12,-0.35 -4.12,3.29c0,3.65 3.41,4.35 3.41,4.23zm11.41,0.12l-11.34,-0.17l11.34,0.17zm5.53,-0.35l4.07,-0.05l-4.07,0.05z" fill="#ffffff" id="svg_6" stroke="#000000" stroke-linecap="round" stroke-linejoin="round" stroke-width="3"/>
     <path id="in" d="m6.41,79.55l45.87,0.52l-12.54,-36.38l-21.18,0l-12.15,35.86z" fill="red" id="svg_2" stroke="#000000" stroke-linecap="round" stroke-linejoin="round" stroke-width="2"/>
    </g>
   </g>
  </g>
 </g>
</svg>