<svg width="130" height="198" xmlns="http://www.w3.org/2000/svg" xmlns:svg="http://www.w3.org/2000/svg" version="1.1" xml:space="preserve">
 <g class="layer">
  <title>Layer 1</title>
  <g id="svg_3">
   <g id="svg_13">
    <g id="svg_4">
     <path id="out" d="m39.95,17.64l-0.2,58.89l-36.62,101.46c-1.39,4.58 -7.12,18.84 9,20.87l100.57,-0.02c-0.26,0 20.02,1.76 18.66,-19.8l-41.97,-102.12l-1.99,-59.51c-0.1,0.16 7.63,-2.78 7.62,-8.49c-0.02,-5.72 -7.3,-7.78 -10.16,-7.77l-43.4,-0.14c-0.26,0.26 -9.1,-0.75 -9.08,7.3c0.02,8.06 7.56,9.59 7.56,9.33l0.01,0zm25.21,0.19l-25.05,-0.29l25.05,0.29zm12.21,-0.81l8.99,-0.13l-8.99,0.13z" fill="#ffffff" id="svg_6" stroke="#000000" stroke-linecap="round" stroke-linejoin="round" stroke-width="6"/>
     <path id="in" d="m14.42,181.28l101.36,1.15l-27.7,-80.39l-46.8,0l-26.85,79.24l-0.01,0z" fill="#597dd6" id="svg_2" stroke="#000000" stroke-linecap="round" stroke-linejoin="round" stroke-width="6"/>
    </g>
   </g>
   <text id="text" fill="#000000" font-family="Serif" font-size="24" id="svg_1" stroke="#000000" stroke-linecap="round" stroke-linejoin="round" stroke-width="0" text-anchor="middle" transform="matrix(0.446024 0 0 0.446024 18.4795 18.2943)" x="101.85" xml:space="preserve" y="73.27">Hg2OH</text>
  </g>
 </g>
</svg>