<svg width="233" height="246" xmlns="http://www.w3.org/2000/svg" xmlns:svg="http://www.w3.org/2000/svg" version="1.1" xml:space="preserve">
 <g class="layer">
  <title>Layer 1</title>
  <g id="svg_12">
   <g id="svg_13">
     <path id="krest" d="m21.49,0l-14.49,17.01l41,41.5l-48,50.5l16,16l45,-47l45,45l14.5,-15l-44,-49.5l47.5,-40.5l-15,-17.5l-46.01,41.49l-41.5,-42z" fill="#FF0000" id="svg_1" stroke="#592a2a" stroke-opacity="0.02"/>
    <path id="out" d="m20.5,31.95l-0.54,214.1l195.51,0l0,-212.82l23.28,-0.9l0,-32.33l-232.75,0l0,32.33l14.5,-0.38zm194.37,1.38l-196.03,-1.56l196.03,1.56z" fill="#ffffff" id="svg_1" stroke="#000000" stroke-linejoin="round" stroke-width="6"/>
    <path id="in" d="m23.85,60.61c2,-26 192.23,24 189.97,0l0,184.39c-0.23,-0.01 -191.91,0 -192.06,0l2.09,-184.39z" fill="#aaff56" id="svg_2" stroke="#000000" stroke-linejoin="round" stroke-width="6"/>
    <g id="lines">
     <path d="m63.24,74.7c0,0 0,136.76 -0.19,136.58c-0.19,-0.18 0.19,-136.58 0.19,-136.58z" fill="#ffffff" id="svg_5" stroke="#000000" stroke-width="6"/>
     <path d="m63.24,210.96l26.22,-0.18l-26.22,0.18z" fill="#ffffff" id="svg_6" stroke="#000000" stroke-width="6"/>
     <path d="m64.58,141.74l49.49,-0.18l-49.49,0.18z" fill="#ffffff" id="svg_7" stroke="#000000" stroke-width="6"/>
     <path d="m63.24,175.02l26.22,-0.18l-26.22,0.18z" fill="#ffffff" id="svg_8" stroke="#000000" stroke-width="6"/>
     <path d="m63.24,106.15l28.28,-0.18l-28.28,0.18z" fill="#ffffff" id="svg_9" stroke="#000000" stroke-width="6"/>
     <path d="m65.57,78.29l25.17,0.32l-25.17,-0.32z" fill="#ffffff" id="svg_10" stroke="#000000" stroke-width="6"/>
    </g>
   </g>
  </g>
 </g>
</svg>